<svg width="48" height="48" viewBox="0 0 48 48" fill="none" xmlns="http://www.w3.org/2000/svg">
<rect width="48" height="48" fill="white"/>
<path d="M35.1973 15.1006C35.1973 13.5133 35.1313 12.2456 33.9684 11.0599C33.0248 10.0978 31.5782 8.92981 30.2297 8.64376C28.5403 8.2854 26.8166 8.28625 25.0955 8.39382C22.8705 8.53288 21.5715 9.28926 19.8363 10.6954C18.937 11.4241 17.4161 12.4998 17.3889 13.83C17.354 15.5427 17.3145 17.1267 17.8576 18.756C19.0462 22.3219 22.0989 23.2812 25.4496 24.2026C28.772 25.1163 32.2648 27.2797 33.4685 30.6594C34.0867 32.395 34.3953 34.9226 34.0413 36.7518C33.8028 37.9839 32.2065 39.2682 31.2711 39.9698C29.5225 41.2812 27.3296 41.9712 25.2621 42.5733C23.0791 43.209 20.5698 43.7361 18.6178 42.188C17.2333 41.0899 15.961 39.9734 15.0978 38.4076C14.4514 37.2351 13.9572 35.9805 13.3586 34.7835C13.0704 34.2071 12.5151 33.5766 12.5151 32.9089" stroke="black" stroke-width="3" stroke-linecap="round"/>
<path d="M21.8879 3.85321C21.8879 9.69094 21.7004 15.5213 21.7004 21.3595C21.7004 23.2862 21.7004 25.2128 21.7004 27.1394C21.7004 29.61 21.4165 31.955 21.1797 34.4086C20.9312 36.9845 20.4953 39.6223 19.8155 42.1151C19.5533 43.0763 18.8886 44.0986 18.8886 45.0936" stroke="black" stroke-width="3" stroke-linecap="round"/>
<path d="M29.761 44.9061C29.761 36.9577 30.1543 28.9112 29.7194 20.9742C29.6417 19.5559 29.5736 18.1653 29.5736 16.746C29.5736 15.1522 29.9039 13.6015 29.9485 12.018C30.0301 9.12061 30.3496 5.86277 31.6356 3.29085" stroke="black" stroke-width="3" stroke-linecap="round"/>
</svg>
