<svg width="48" height="48" viewBox="0 0 48 48" fill="none" xmlns="http://www.w3.org/2000/svg">
<rect width="48" height="48" fill="white"/>
<path d="M16.7435 28.2225C15.0512 28.2225 13.8209 28.4033 12.8069 29.868C12.0706 30.9315 11.6822 31.9442 11.6822 33.2942C11.6822 33.8363 11.5094 34.7837 11.7968 35.2625C12.2807 36.0691 13.1268 36.4431 13.9317 36.8455C15.3345 37.5469 17.5679 38.2878 19.0763 37.512C20.8847 36.582 21.8933 33.8073 22.4089 31.9925C23.0429 29.7605 23.1185 27.7519 21.3362 26.2438C20.2377 25.3143 18.8754 25.1636 17.5871 25.8793C16.8991 26.2615 16.5368 27.2292 15.8062 27.4727" stroke="black" stroke-width="3" stroke-linecap="round"/>
<path d="M35.3017 27.8476C33.2532 27.8476 32.4462 27.8716 31.4692 29.7326C30.6592 31.2754 30.4094 32.3432 30.4278 34.0545C30.4424 35.4123 30.4287 36.7057 31.8442 37.2204C33.2389 37.7276 35.3819 38.4178 36.8013 37.7828C38.3674 37.0822 39.4885 34.897 40.2693 33.4713C40.9021 32.3156 41.9458 30.555 41.1128 29.3056C40.4711 28.3431 39.3433 27.3482 38.301 26.827C37.4592 26.4061 35.8237 26.7229 34.9268 26.7229" stroke="black" stroke-width="3" stroke-linecap="round"/>
<path d="M8.87035 31.4093C7.97152 31.4093 1.71717 32.2465 2.13235 30.3783C2.44069 28.9907 2.82052 27.4493 2.87176 26.0147C2.90658 25.0396 3.70716 19.0372 4.27768 19.0372C5.07463 19.0372 5.78867 18.8497 6.60005 18.8497C7.63862 18.8497 8.57553 19.1004 9.59935 19.2142C10.2116 19.2822 10.5697 18.999 11.1615 18.8914C12.0706 18.7261 12.432 18.9121 12.432 17.9124C12.432 16.7912 12.432 15.6699 12.432 14.5486C12.432 13.1328 12.1987 11.5005 12.6195 10.133C13.2697 8.0199 15.1428 6.92282 17.1184 6.47759C21.5938 5.46906 26.4069 4.92574 30.9902 5.49866C33.0835 5.76032 35.1314 5.91457 37.1971 6.29014C39.1299 6.64156 39.3612 8.08836 39.4257 9.89346C39.5035 12.0711 39.1765 14.1064 38.8738 16.2253C38.6645 17.6904 38.4231 18.5332 40.061 19.0372C41.0699 19.3476 42.3948 19.3831 43.1332 20.2036C43.7944 20.9382 44.487 22.2361 44.487 23.2445C44.487 23.9842 45.4018 28.9723 44.2996 28.9723" stroke="black" stroke-width="3" stroke-linecap="round"/>
<path d="M25.9289 30.8469H28.3658" stroke="black" stroke-width="3" stroke-linecap="round"/>
</svg>
