<svg width="48" height="48" viewBox="0 0 48 48" fill="none" xmlns="http://www.w3.org/2000/svg">
<rect width="48" height="48" fill="white"/>
<path d="M25.0081 5.62226C23.3338 5.62226 21.6596 5.62226 19.9854 5.62226C17.7191 5.62226 15.7876 6.87669 13.9527 8.11108C10.9326 10.1428 8.77666 13.1013 8.77666 16.849C8.77666 20.5982 9.03833 24.0242 10.3998 27.5888C11.1709 29.6076 12.0912 31.5851 13.8445 32.9271C17.9649 36.0811 24.1605 38.4326 29.1922 36.1734C33.2462 34.3533 35.5633 31.1075 36.4512 26.8043C37.0174 24.0606 37.1297 21.3409 37.0103 18.5353C36.9661 17.4963 36.5346 16.7542 36.0815 15.8481C35.5283 14.7415 35.0694 13.5955 34.3321 12.5928C32.6734 10.3368 31.2141 7.55039 28.9397 5.85672C26.9274 4.35817 24.7575 4.25859 22.4111 4.81069" stroke="black" stroke-width="3" stroke-linecap="round"/>
<path d="M19.0025 12.9264V14.7119" stroke="black" stroke-width="3" stroke-linecap="round"/>
<path d="M27.7674 13.738V16.0104" stroke="black" stroke-width="3" stroke-linecap="round"/>
<path d="M17.217 24.2884C17.217 25.5271 17.2683 26.9367 18.1909 27.8593C19.4822 29.1506 21.9729 29.3063 23.6374 29.6808C24.4369 29.8607 25.3775 29.8275 26.1443 29.4825C26.7702 29.2008 28.1191 28.9755 28.3806 28.22C28.7058 27.2805 28.579 26.0893 28.579 25.1" stroke="black" stroke-width="3" stroke-linecap="round"/>
</svg>
